<svg width="64" height="64" viewBox="0 0 64 64" fill="none" xmlns="http://www.w3.org/2000/svg">
  <!-- Layer 1: Top Platform -->
  <path d="M12 22L32 10L52 22L32 34L12 22Z" fill="#2C2A29"/>
  
  <!-- Layer 2: Core Accent Block -->
  <path d="M12 31L32 43L52 31L46.5 27.7L32 36.4L17.5 27.7L12 31Z" fill="#A37059"/>
  
  <!-- Layer 3: Base Foundation -->
  <path d="M12 40L32 52L52 40L46.5 36.7L32 45.4L17.5 36.7L12 40Z" fill="#2C2A29"/>
  
  <!-- AI Sparkle at Apex -->
  <path d="M32 3C32 7 34 9 38 9C34 9 32 11 32 15C32 11 30 9 26 9C30 9 32 7 32 3Z" fill="#A37059"/>
  <circle cx="44" cy="8" r="1.5" fill="#A37059"/>
</svg>